<?xml version="1.0" encoding="utf-8"?>
<!-- Generator: Adobe Illustrator 19.0.0, SVG Export Plug-In . SVG Version: 6.00 Build 0)  -->
<svg version="1.1" id="Layer_1" xmlns="http://www.w3.org/2000/svg" xmlns:xlink="http://www.w3.org/1999/xlink" x="0px" y="0px"
	 viewBox="155 152.7 922.8 489.3" style="enable-background:new 155 152.7 922.8 489.3;" xml:space="preserve">
<style type="text/css">
	.st0{fill:#FFFFFF;}
</style>
<g id="XMLID_42_">
	<path id="XMLID_43_" class="st0" d="M374.6,371.7c6.8,0,13.7,4.1,13.7,11.1c0,0.9-0.2,1.9-0.4,3c-7.5,26.1-27.6,43.4-52.6,43.4
		c-5.1,0-9.4-0.6-13.5-1.9c-12.8,13.3-30.2,18.8-46.4,18.8c-16.9,0-33.4-6.6-40.9-17.3c-2.1,11.8-10.5,17.1-18,17.1
		c-7.3,0-13.9-5.1-13.9-13.9c0-2.1,0.4-4.9,1.5-7.7l56.1-158.6c3-9.8,11.1-14.3,18.4-14.3c7.3,0,13.7,4.3,13.7,11.3
		c8.1-4.1,16.1-4.9,22-4.9c3,0,5.4,0.2,7.3,0.4c18.6,1.9,35.1,15,35.1,36.8c0,16.5-9.8,35.3-24.2,44.9c9,9.6,12.6,21.4,12.6,32.7
		c0,10.9-3.2,21.4-7.9,29.5h0.2c11.8,0,20.3-8.8,24.8-22C363.9,374.3,369.3,371.7,374.6,371.7z M293.7,316.7c6.2,0,12,2.1,14.1,3.9
		c10.3-4.3,13.3-14.6,13.3-20.8c0-7.3-6.2-12-13.9-12c-9.2,0-21.2,5.1-26.5,15.6l-25.7,71c5.4-2.4,13.5-3.4,20.3-3.4
		c14.3,0.2,25.9,5.8,33.6,13.3c1.7-4.7,2.4-8.8,2.4-12.4c0-7.1-3-11.8-8.3-13.1c-2.1,0.9-5.1,1.3-8.3,1.3c-8.1,0-17.8-3.4-21.4-14.8
		c-0.4-1.9-0.6-3.9-0.6-5.8c0-9.8,6.2-18.6,13.1-21.4C288.2,317.2,290.9,316.7,293.7,316.7z M296.5,408.5
		c-5.8-5.8-11.3-10.5-20.1-10.5c-8.1,0-13.7,3.9-15.4,9.4c-0.4,1.1-0.4,2.1-0.4,3.2c0,4.9,4.5,8.6,12.4,8.6
		C280.7,419.2,289.9,415.8,296.5,408.5z"/>
	<path id="XMLID_47_" class="st0" d="M448,399.3c12.6,0,22.5-9.2,27.2-22.5c2.4-7.9,8.3-11.3,14.1-11.3c6.2,0,12,4.5,12,12.4
		c0,1.9-0.4,4.1-1.1,6.4c-7.3,22.5-27.2,40.4-52.4,40.4c-4.5,0-9-0.6-12.8-1.7c-9,15.4-24.2,20.8-40.9,20.8
		c-21.8,0-41.1-13.5-41.1-36c0-4.7,0.9-10.1,2.8-15.4l15.6-44.1c6.8-19,25.9-30.2,46-30.2c23.1,0,41.1,14.6,41.1,36.4
		c0,8.6-6.4,27.2-10.1,32.5c-1.3,1.9-2.8,3.6-4.3,4.7c0.9,4.1,0.9,7.5,0.9,7.3C445.9,399.3,447.2,399.3,448,399.3z M427.9,352.9
		c0-4.9-4.3-9.4-10.9-9.4s-14.1,4.1-16.7,11.1L385.1,398c-0.9,2.1-1.9,6-1.9,10.1c0,5.1,2.1,10.3,10.5,10.3
		c6.6,0,12.8-3.6,15.6-11.1c-4.1-3.4-7.7-7.3-7.9-14.6c0-12.8,10.5-22.5,22.3-21.2c0.2-1.7,0.9-3.4,1.5-5.3
		C426.6,361.7,427.9,356.8,427.9,352.9z"/>
	<path id="XMLID_50_" class="st0" d="M556.5,373.7c6.6,0,12.8,4.1,12.8,10.5c0,1.3-0.4,2.8-0.9,4.3c-12.2,35.1-35.1,55.4-62.5,55.4
		c-22,0-41.5-12.8-41.5-34.7c0-4.5,0.9-9.2,2.6-14.3v0.2l18-51.6h-7c-5.8,0-9.4-5.1-9.4-11.1c0-6.8,4.9-14.1,16.5-14.1h9l17.1-47.7
		c2.6-7.5,8.6-12.4,15.6-12.4c9.4,0,15,6.4,15,14.3c0,1.3-0.2,2.6-0.6,4.1l-14.3,41.7h9.6c8.1,0,11.8,4.9,11.8,10.5
		c0,7.1-5.8,14.8-16.7,14.8h-13.9l-21,59.7c-0.4,1.5-0.9,3.2-0.9,4.7c0,5.8,4.7,10.5,12.4,10.5c12.4,0,25.9-11.3,34.5-34.9
		C545.2,376.7,551.2,373.7,556.5,373.7z"/>
	<path id="XMLID_52_" class="st0" d="M626.5,373.7c6.6,0,12.8,4.1,12.8,10.5c0,1.3-0.4,2.8-0.9,4.3c-12.2,35.1-35.1,55.4-62.5,55.4
		c-22,0-41.5-12.8-41.5-34.7c0-4.5,0.9-9.2,2.6-14.3v0.2l18-51.6h-7.1c-5.8,0-9.4-5.1-9.4-11.1c0-6.8,4.9-14.1,16.5-14.1h9
		l17.1-47.7c2.6-7.5,8.6-12.4,15.6-12.4c9.4,0,15,6.4,15,14.3c0,1.3-0.2,2.6-0.6,4.1l-14.3,41.7h9.6c8.1,0,11.8,4.9,11.8,10.5
		c0,7.1-5.8,14.8-16.7,14.8h-13.9l-21,59.7c-0.4,1.5-0.9,3.2-0.9,4.7c0,5.8,4.7,10.5,12.4,10.5c12.4,0,25.9-11.3,34.5-34.9
		C615.1,376.7,621.1,373.7,626.5,373.7z"/>
	<path id="XMLID_54_" class="st0" d="M634.6,412.6c0,3.2,2.4,5.8,6.6,5.8c10.1,0,22.5-10.9,32.1-36.6c3-7.9,8.8-11.1,14.1-11.1
		c6.6,0,12.6,4.9,12.6,11.8c0,1.3-0.2,2.8-0.6,4.3c-15,44.5-40.4,57.1-60.8,57.1c-18.8,0-35.1-10.9-35.1-30.6c0-4.5,0.9-9,2.6-13.9
		l44.5-127.1c3.4-9.6,8.8-14.1,16.9-14.1c6.4,0,14.1,5.4,14.1,13.5c0,2.1-0.4,4.7-1.3,7.3l-44.9,130.1
		C635,410.3,634.6,411.8,634.6,412.6z"/>
	<path id="XMLID_56_" class="st0" d="M694.3,412.4c0,3.9,2.4,6.2,6.2,6.2c5.8,0,13.3-4.3,20.1-15.8l24.6-72.3
		c3-8.6,9.4-12.2,15.4-12.2c7.9,0,15.6,6,15.6,14.8c0,1.5-0.2,3.2-0.9,5.1l-30.2,87.1c16.7-8.6,31-21.4,38.9-43.2
		c3-8.3,9.2-12,15-12c6.4,0,12,4.3,12,11.6c0,1.5-0.2,3.2-0.9,4.9c-14.8,44.9-46.2,61.6-76.8,71.3c-3.2,8.8-6.6,18.2-9.6,27.2
		c-9,24.8-28.9,36.2-50.1,36.2c-21,0-40.2-13.7-40.2-34.5c0-26.3,25.9-37,52-42.8c-13.9-2.8-24.2-13.3-24.2-27.8
		c0-3.9,0.6-7.9,2.1-12l25.9-73.6c3-8.6,9.4-12.2,15.4-12.2c7.9,0,15.6,6,15.6,14.8c0,2.1-0.4,4.3-1.3,6.6l-23.8,67.4
		C694.7,409,694.3,410.9,694.3,412.4z M666.9,482.8c-0.6,1.5-0.9,3.2-0.9,4.5c0,3.9,2.1,6.8,7.1,6.8c6.4,0,13.1-4.1,16.1-12
		l5.1-14.6C680.4,471.2,669.9,475.3,666.9,482.8z"/>
	<path id="XMLID_59_" class="st0" d="M867.4,373.7c6.6,0,12.8,4.1,12.8,10.5c0,1.3-0.4,2.8-0.9,4.3c-12.2,35.1-35.1,55.4-62.5,55.4
		c-22,0-41.5-12.8-41.5-34.7c0-4.5,0.9-9.2,2.6-14.3v0.2l18-51.6h-7.1c-5.8,0-9.4-5.1-9.4-11.1c0-6.8,4.9-14.1,16.5-14.1h9
		l17.1-47.7c2.6-7.5,8.6-12.4,15.6-12.4c9.4,0,15,6.4,15,14.3c0,1.3-0.2,2.6-0.6,4.1l-14.3,41.7h9.6c8.1,0,11.8,4.9,11.8,10.5
		c0,7.1-5.8,14.8-16.7,14.8h-13.9l-21,59.7c-0.4,1.5-0.9,3.2-0.9,4.7c0,5.8,4.7,10.5,12.4,10.5c12.4,0,25.9-11.3,34.5-34.9
		C856.1,376.7,862.1,373.7,867.4,373.7z"/>
	<path id="XMLID_61_" class="st0" d="M923.7,259.4c0,3.2-0.4,6.8-1.5,10.1c-4.5,12.4-16.9,19.9-32.1,19.9c-2.6,0-5.6,0.2-8.6-0.6
		c-10.7-3.2-4.5-17.8,3.9-15c3.6,1.3,7.7-0.4,10.3-2.6c-2.6-1.3-5.4-3.9-7.1-6.6h0.2c-1.7-2.8-2.6-5.8-2.6-8.8c0-6,3.2-11.8,8.6-15
		c3.2-1.9,6.6-2.8,9.8-2.8c5.8,0,11.1,2.4,14.6,7.1l-0.2-0.2C922.2,248.5,923.7,253.8,923.7,259.4z"/>
	<path id="XMLID_63_" class="st0" d="M1016.8,388c-13.7,39.4-41.7,57.4-86.7,57.4c-32.3,0-57.8-11.3-57.8-37.2
		c0-13.7,9-27.6,21.4-33.6c8.6-16,17.5-32.5,25.9-48.8c4.3-8.3,11.8-12.4,20.3-12.4c10.7,0,17.8,8.6,17.8,17.8
		c0,6.4-4.7,13.3-10.7,15.8c0.9,6.6,5.1,13.9,9.4,21.2c6,10.1,12.6,21.8,12.6,34.2c0,2.8-0.4,5.3-0.9,8.1
		c9.6-5.8,17.3-14.6,22.5-27.2c0.6-1.5,3-3,4.7-3l17.1,1.5C1016,382,1017.9,385,1016.8,388z M919.7,420.5c12-0.4,21-9.2,21-19.5
		c0-9-9.4-25.7-12.4-34.9c-1.3,2.8-2.8,5.6-4.5,9.2c6.2,4.1,9.6,10.7,9.6,17.5c0,10.5-8.6,18.2-18,18.2c-4.9,0-9.4-1.9-12.4-5.1v1.1
		C902.8,415.2,910.7,420.5,919.7,420.5z"/>
</g>
</svg>
